<svg width="971" height="1023" viewBox="0 0 971 1023" xmlns="http://www.w3.org/2000/svg"><title>hero</title><g fill="none" fill-rule="evenodd"><path d="M79.98.93c7.37-1.99 15.28 1.28 20.04 7.03 6.39 7.68 9.55 17.46 11.69 27.07 3.47 16.67 6.66 33.39 9.25 50.21.4 4.1 2.45 7.73 4.4 11.26 1.54 2.64 3.2 5.59 6.2 6.78 3.78.99 7.42-.89 11.06-1.64.42.67 1.26 2.01 1.68 2.69-2.94 2.27-6.56 3.33-10.22 3.62-5.72-.87-10.85-4.85-12.9-10.29-4.84-12.76-7.38-26.24-9.42-39.69-2.18-14-4.54-28.27-10.77-41.14-2.81-5.61-7.38-11.25-13.95-12.24-6.04-.71-12.01 2.07-16.62 5.78-2.79 3.53-4.1 7.99-5.34 12.25-2 5.58-1.69 11.56-2.28 17.37-1.4 23.15 1.85 46.23 5.37 69.06.93 5.9 2.26 11.88 1.48 17.87-.46 3.44-2.2 6.98-5.45 8.54-3.93.1-7.92-.49-11.47-2.24-10.27-4.91-19.5-12.22-30.67-15.1-5.14-1.46-11.61-.61-14.72 4.19-3.83 6.19-4.01 14.58-.51 20.98 3.69 9.68 10.34 18.33 18.99 24.07 8.85 4.65 16.37 11.65 21.82 20.02 7.38 11.16 12.19 23.75 16.58 36.31 4.71 13.87 8.86 28.48 18.23 40.06l-2.65 2.01c-7.79-8.56-12.65-19.29-16.12-30.21-3.51-11.24-7.3-22.42-12.42-33.04-2.92-5.83-5.55-11.91-9.82-16.91-6.15-7.18-13.98-12.59-21.48-18.24-6.97-4.86-12.23-11.86-15.75-19.53-1.84-4.19-4.07-8.44-3.82-13.16-.86-6.31 2.18-12.44 6.16-17.14 4.3-4.79 11.47-5.13 17.27-3.34 11.11 3.72 20.75 10.62 31.26 15.65 2.91 1.47 6.23 1.74 9.31.62 2.82-8.73-.06-17.79-1.09-26.56-4.18-27.83-7.82-56.56-1.61-84.38C63.63 10.51 71.25 3.36 79.98.93z" fill="#111008"/><path d="M70.42 10.37C75.03 6.66 81 3.88 87.04 4.59c6.57.99 11.14 6.63 13.95 12.24 6.23 12.87 8.59 27.14 10.77 41.14 2.04 13.45 4.58 26.93 9.42 39.69 2.05 5.44 7.18 9.42 12.9 10.29-2.08 2.38-4.59 4.98-8.06 4.6-7.94-.71-15.19-5.33-20.31-11.28-6.74-8.21-8.56-19.05-9.83-29.28-2.14-12.56-3.04-25.95-9.97-37.02-4.5-7.22-12.66-11.06-20.83-12.35 1.24-4.26 2.55-8.72 5.34-12.25z" fill="#F5D529"/><path d="M194.92 10.96c5.54-4.42 13.8-3.88 19.58-.21 5.41 3.5 8.3 9.7 9.73 15.79 1.92 8.72 1.55 17.79.33 26.58-4.37 30.71-9.78 61.28-13.46 92.09l-.09-.85c-.11-2.84-.73-5.67-2.51-7.95 3.18-22.86 6.01-45.77 9.8-68.54 2.07-12.85 3.25-25.92 2.23-38.94-.43-4.47-1.85-9.11-5.14-12.31-3.16-2.94-7.38-4.47-11.55-5.26-4.24-1.04-7.21 3.26-9.72 5.99-3.5 5.07-7.49 9.85-10.12 15.47-6.57 13.62-12.48 27.56-18.81 41.29-3.38 7.44-7.55 14.49-12.25 21.16-.88-.71-1.76-1.43-2.64-2.15 11.55-19.25 19.36-40.39 29.44-60.39 3.94-7.9 7.73-16.52 15.18-21.77z" fill="#0D0B05"/><path d="M194.12 17.35c2.51-2.73 5.48-7.03 9.72-5.99 4.17.79 8.39 2.32 11.55 5.26 3.29 3.2 4.71 7.84 5.14 12.31 1.02 13.02-.16 26.09-2.23 38.94-3.79 22.77-6.62 45.68-9.8 68.54-1.04 5.91-1.6 11.89-2.36 17.84-.57 1.92-2.55 1.14-4.01 1.05l-1.63-.95c3.79-16.57 3.94-33.63 6.48-50.38 2.63-20.89 1.58-41.99 1.84-62.98.18-7.18-1.23-14.99-6.24-20.43-2.54-1.67-5.86-1.58-8.46-3.21z" fill="#F4D328"/><path d="M184 32.82c2.63-5.62 6.62-10.4 10.12-15.47 2.6 1.63 5.92 1.54 8.46 3.21 5.01 5.44 6.42 13.25 6.24 20.43-.26 20.99.79 42.09-1.84 62.98-2.54 16.75-2.69 33.81-6.48 50.38-2.26-1.33-4.74-2.2-7.2-3.05-8.41-2.77-16.54-6.54-25.31-8.06-2.99-.68-5.91-1.87-9.03-1.76-6.87-.14-14.42-.96-20.49 2.95-4.33 2.67-6.26 7.68-7.22 12.45-1.62 7.06-.87 14.76 2.75 21.12 4.54 8.29 12.58 13.85 20.78 18.12-9.48 11.61-17.45 25.29-18.89 40.48-.54 5.02.86 10.04 3.37 14.37 2.66-12.27 3.79-24.93 7.95-36.84 2.25-6.79 8.07-12.4 14.8-14.54 4.68 1.37 8.98 4.23 14.06 3.98-1.03-4.94-6.55-5.53-10.33-7.45-10.99-4.92-23.31-10.6-28.54-22.23-4.51-9.38-1.53-22.8 8.95-26.63 1.91 9.45 2.05 20.81 10.12 27.45 9.35 6.95 22.05 1.75 32.07 7.09 9.38 4.73 12.13 15.84 14.65 25.17 3.22 9.76.19 20.22 3.04 30.05 1.93 6.73 4.44 13.75 9.63 18.7-2.09 1.51-4.01 3.24-5.93 4.95-20.85 18.49-45.44 32.29-71.06 43.01-4.43-3.24-4.82-9.15-8.07-13.27-2.83-4.28-7.44-7.37-12.61-7.83-9.59-1.06-18.74-4.8-26.72-10.15-3.17-2.65-6.01-5.67-8.82-8.68-9.37-11.58-13.52-26.19-18.23-40.06-4.39-12.56-9.2-25.15-16.58-36.31-5.45-8.37-12.97-15.37-21.82-20.02-8.65-5.74-15.3-14.39-18.99-24.07 6.68-3.82 14.27-6.82 22.1-5.56 14.11 1.59 24.36 13.26 38.26 15.54 1.5-3.18 2.87-6.63 2.34-10.22-.41-3.11-1.83-6.96-5.33-7.59 3.25-1.56 4.99-5.1 5.45-8.54.78-5.99-.55-11.97-1.48-17.87-3.52-22.83-6.77-45.91-5.37-69.06.59-5.81.28-11.79 2.28-17.37 8.17 1.29 16.33 5.13 20.83 12.35 6.93 11.07 7.83 24.46 9.97 37.02 1.27 10.23 3.09 21.07 9.83 29.28 5.12 5.95 12.37 10.57 20.31 11.28 3.47.38 5.98-2.22 8.06-4.6 3.66-.29 7.28-1.35 10.22-3.62 3.6-2.25 6.5-5.41 8.64-9.06 4.7-6.67 8.87-13.72 12.25-21.16 6.33-13.73 12.24-27.67 18.81-41.29z" fill="#C5A408"/><path d="M567.97 76.98c7.52-4.62 16.48-5.71 25.11-6.38 17.87-.81 36.02 1.01 53.09 6.55 20.85 6.87 36.78 24.07 46.23 43.44-.67.98-1.32 1.95-2.02 2.89-7.87-13.78-18.41-26.08-30.69-36.13-11.52-8.2-25.79-11.68-39.74-12.63-11.42-.71-22.87.11-34.25 1.1 4.4 3.29 9.68 5.02 14.46 7.65-.41.67-1.23 2.02-1.65 2.69-9.5-3.95-19.64-5.94-29.63-8.23-.22-.24-.68-.71-.91-.95z" fill="#090B06"/><path d="M585.7 75.82c11.38-.99 22.83-1.81 34.25-1.1 13.95.95 28.22 4.43 39.74 12.63 12.28 10.05 22.82 22.35 30.69 36.13-1.75 2.01-3.67 4.21-6.41 4.75-3.96.83-7.95-.18-11.88-.66-10.96-1.6-22.21-1.34-33.03 1.05-3.18.63-6.61 1.56-9.71.12-5.06-2.13-10.08-4.44-15.44-5.74-12.35-3.53-25.31-2.94-37.98-2.09 6.81-9.48 17.86-14.08 28.18-18.61 4.61-2.53 9.75-3.71 14.88-4.65 10.74 7.75 21.03 16.16 32.07 23.48-5.39-10.95-16.11-17.71-26.05-24.08-8.05-4.94-16.41-9.34-24.85-13.58-4.78-2.63-10.06-4.36-14.46-7.65z" fill="#7A9331"/><path d="M598.51 86.16c.42-.67 1.24-2.02 1.65-2.69 8.44 4.24 16.8 8.64 24.85 13.58 9.94 6.37 20.66 13.13 26.05 24.08-11.04-7.32-21.33-15.73-32.07-23.48-5.13.94-10.27 2.12-14.88 4.65-10.32 4.53-21.37 9.13-28.18 18.61 12.67-.85 25.63-1.44 37.98 2.09 5.36 1.3 10.38 3.61 15.44 5.74 3.1 1.44 6.53.51 9.71-.12 10.82-2.39 22.07-2.65 33.03-1.05 3.93.48 7.92 1.49 11.88.66 2.74-.54 4.66-2.74 6.41-4.75.7-.94 1.35-1.91 2.02-2.89 1.85 3.24 5.49 3.31 8.79 2.69l.54-.47c16.94-2.82 34.43-3.78 51.37-.4 27.64 5.02 52.37 20.91 71.03 41.57 4.61 5.2 11.13 10.25 10.75 17.96-8.29-2.88-16.11-7.17-24.55-9.51l.3-1.07-1.32.31c-.02-.43-.06-1.29-.09-1.72-.43 1.11-1.21 1.82-2.36 2.12.63.1 1.89.29 2.53.38.23.33.69.97.92 1.29 9.5 13.31 19.35 27.58 21.35 44.23-.17 3.37 1.07 7.66-1.39 10.4-7.18-11.73-13.55-26.43-27.61-31.12l-1.08-1.48-.08 2.52c2.37 3.81 3.98 8.03 6.22 11.92 6.49 11.88 13.57 24.01 15.03 37.74.94 4.63.88 9.6-1.38 13.86l-1.11-.08c-6.16-10.95-13.92-22.01-25.45-27.74-.87 14.7-1.84 29.41-3.68 44.02-4.02 27.52-17.96 52.48-34.92 74.1-1.64 1.99-.84 4.65-.01 6.8-.22.68-.66 2.03-.88 2.7-1.23-.77-2.37-1.64-3.69-2.2-2.02 1.44-3.85 3.11-5.78 4.66-.25-.82-.76-2.44-1.02-3.25 1.31-2.01 2.49-4.09 3.73-6.14-3.35-3.39-7.03-6.43-10.32-9.87-1.62-2-3.01-4.16-4.66-6.12.71-.58 2.14-1.74 2.85-2.31.97.79 1.96 1.57 2.96 2.35 4.44 3.81 7.62 8.85 12.16 12.58 9.1-10.58 16.97-22.26 22.9-34.91 9.85-20.69 14.66-43.55 15.44-66.38 1.57-21.56-5.5-43.63-19.75-59.94-8.16-11.09-17.79-21.12-28.81-29.39-17.02-12.81-36.88-21.59-57.47-26.82-16.19-4.13-33.56-4.57-49.6.47-15.68 4.76-29.39 14.54-40.6 26.32-3.75 4.01-7.64 7.87-11.43 11.84-.46-.66-1.39-2-1.85-2.67 4.65-5.22 9.25-10.49 13.79-15.81 1.09-.85.53-2.11.35-3.22-4.45-1.78-9.96.01-13.55-3.78 8.16-9.88 21.17-12.95 31.84-19.2-14.09-6.67-29.97-2.73-44.72-1.16 3.82-8.8 10.63-16.22 19.07-20.76 7.86-4.63 16.84-6.76 24.83-11.1-.26-.95-.79-1.68-1.58-2.2-3.75-2.51-7.75-4.67-11.9-6.44z" fill="#050502"/><path d="M142.34 101.2c2.8-2.55 5.33-5.36 7.96-8.08.88.72 1.76 1.44 2.64 2.15-2.14 3.65-5.04 6.81-8.64 9.06-.42-.68-1.26-2.02-1.68-2.69l-.28-.44z" fill="#272415"/><path d="M7.34 122.31c3.11-4.8 9.58-5.65 14.72-4.19 11.17 2.88 20.4 10.19 30.67 15.1 3.55 1.75 7.54 2.34 11.47 2.24 3.5.63 4.92 4.48 5.33 7.59.53 3.59-.84 7.04-2.34 10.22-13.9-2.28-24.15-13.95-38.26-15.54-7.83-1.26-15.42 1.74-22.1 5.56-3.5-6.4-3.32-14.79.51-20.98z" fill="#F5D429"/><path d="M691.82 130.56c17.16-6.71 36.12-7.92 54.23-5.18 19.04 3.03 37.38 10.39 53.26 21.31 9.78 6.91 19.03 15.28 24.44 26.15-11.77-5.82-23.77-11.48-36.66-14.36-14.08-3.51-28.81-3.5-43.04-.91-14.11-11.19-30.71-18.69-47.5-24.89-1.62-.64-3.18-1.36-4.73-2.12z" fill="#7A9331"/><path d="M634.26 134.34c16.04-5.04 33.41-4.6 49.6-.47 20.59 5.23 40.45 14.01 57.47 26.82 11.02 8.27 20.65 18.3 28.81 29.39-.47 4.93.17 9.86.5 14.78 1.7 22.19 1.25 44.8-4.2 66.48-4.42 18.66-10.04 37.18-18.83 54.29-2.43 4.54-4.7 9.27-8.22 13.1-1-.78-1.99-1.56-2.96-2.35-5.59-6.53-11.41-12.89-18.04-18.39-3.52-3.92-7.38-7.63-10.32-12.01 1.79-5.78 5.92-10.49 7.87-16.23 4.87-12.57 2.43-27-4.23-38.45-5.61-9.57-14.54-16.75-24.19-21.98-11.96-6.33-25.82-9.83-39.33-7.54-8.81 1.94-17.1 6.51-23.16 13.22-4.57 4.89-7.86 10.78-10.68 16.8-10.71-4.93-22.61-7.54-34.41-6.05-12.31-12.86-23.19-28.08-39.75-35.85.71-2.4 1.86-4.65 3.45-6.59 4.73-3.7 9.98-6.72 15.54-8.99 3.64-1.51 7.33-3.17 10.23-5.93 4.99-4.69 8.32-10.78 12.82-15.89 3.79-3.97 7.68-7.83 11.43-11.84 11.21-11.78 24.92-21.56 40.6-26.32z" fill="#F6D529"/><path d="M592.44 142.64c9.58-4.99 19.51-10.96 30.74-10.28-6.3 4.76-13.1 8.82-19.57 13.35-4.15 3.25-9.81 1.14-14-.97.88-.78 1.78-1.55 2.83-2.1z" fill="#73882F"/><path d="M206.14 154.25c.76-5.95 1.32-11.93 2.36-17.84 1.78 2.28 2.4 5.11 2.51 7.95-.12 5.24-1.2 10.45-.69 15.7 2.83 1.69 5.25 4.11 8.44 5.14 8.73 3.31 14.21 11.99 16.06 20.83 2.45 11.35 1.95 23.45-1.46 34.54 7.99-.48 16.48 1.11 22.68 6.47 6.35 5.17 10.02 12.66 13.39 19.93l-2.72 1.68c-2.18-3.45-4.48-6.81-6.72-10.21-1.85 3.62-3.85 7.17-5.47 10.91-.71-.58-2.12-1.73-2.82-2.31-1.14-5.68-5.83-9.76-9.45-14-4.52 10.06-13.38 16.99-20.94 24.64-21.72 17.01-43.74 34.47-69.52 44.92-8.98 3.71-18.38 6.27-27.92 8.05 3.24 5.38 6.82 10.54 10.13 15.87 12.73-1.27 24.4-7.04 35.58-12.88 21.81-12.04 42.32-26.51 60.95-43.04 5.16-4.97 10.29-9.98 15.27-15.13.91.95 1.82 1.91 2.73 2.87-4.32 5.93-9.76 10.9-14.81 16.19-15.74 12.09-31.59 24.08-48.15 35.04-12.53 8.22-25.89 15.6-40.54 19.23-3.96.95-8.01 1.59-11.87 2.93-2.99-.76-5.4-2.62-6.06-5.74-2.2-6.71-6.8-12.21-9.74-18.55-1.58-3.34-2.21-7-3-10.57-4.2 3.53-7.44 8.08-9.77 13.03-.64-.39-1.93-1.18-2.57-1.58 1.55-8.81 9.44-13.84 14.67-20.33-.09-.23-.27-.68-.37-.91-9.81-3.21-20.86-5.07-28.27-12.94.81-.42 2.41-1.28 3.22-1.71 7.98 5.35 17.13 9.09 26.72 10.15 5.17.46 9.78 3.55 12.61 7.83 3.25 4.12 3.64 10.03 8.07 13.27 25.62-10.72 50.21-24.52 71.06-43.01 1.92-1.71 3.84-3.44 5.93-4.95 6.81-4.25 12.12-10.35 17.49-16.21-2.37-4.42-8.77-7.54-6.71-13.4 3.34-8.67 6.66-17.66 6.36-27.12.25-9.93-4.4-19.49-11.48-26.28-8.29-8.65-20.04-12.26-30.49-17.48.82-1.31 1.65-2.62 2.47-3.93 2.46.85 4.94 1.72 7.2 3.05l1.63.95c1.46.09 3.44.87 4.01-1.05z" fill="#070705"/><path d="M138.47 144.43c6.07-3.91 13.62-3.09 20.49-2.95 3.12-.11 6.04 1.08 9.03 1.76 8.77 1.52 16.9 5.29 25.31 8.06-.82 1.31-1.65 2.62-2.47 3.93-9.27-3.96-18.57-8.56-28.76-9.47-5.32-.11-11.02-1.19-15.92 1.5-10.48 3.83-13.46 17.25-8.95 26.63 5.23 11.63 17.55 17.31 28.54 22.23 3.78 1.92 9.3 2.51 10.33 7.45-5.08.25-9.38-2.61-14.06-3.98-6.73 2.14-12.55 7.75-14.8 14.54-4.16 11.91-5.29 24.57-7.95 36.84-2.51-4.33-3.91-9.35-3.37-14.37 1.44-15.19 9.41-28.87 18.89-40.48-8.2-4.27-16.24-9.83-20.78-18.12-3.62-6.36-4.37-14.06-2.75-21.12.96-4.77 2.89-9.78 7.22-12.45z" fill="#0C0A00"/><path d="M146.15 147.26c4.9-2.69 10.6-1.61 15.92-1.5 10.19.91 19.49 5.51 28.76 9.47 10.45 5.22 22.2 8.83 30.49 17.48 7.08 6.79 11.73 16.35 11.48 26.28.3 9.46-3.02 18.45-6.36 27.12-2.06 5.86 4.34 8.98 6.71 13.4-5.37 5.86-10.68 11.96-17.49 16.21-5.19-4.95-7.7-11.97-9.63-18.7-2.85-9.83.18-20.29-3.04-30.05-2.52-9.33-5.27-20.44-14.65-25.17-10.02-5.34-22.72-.14-32.07-7.09-8.07-6.64-8.21-18-10.12-27.45z" fill="#F6D529"/><path d="M751.84 162c13.68-3.34 28.74-3.02 41.33 3.83 16.87 9.03 27.26 26.72 32.32 44.66.31.42.92 1.26 1.22 1.68-1.7-1.23-3.29-2.61-4.68-4.17-8.77-9.92-19.67-18.12-31.96-23.13-3.89-1.58-7.98-2.78-12.2-2.77 3.75 6.05 12.28 6.01 16.31 11.66 6.25 12.6 14.51 24.16 19.67 37.3 1.97 6.24 5.07 12.47 4.67 19.14-.27-.67-.82-2.01-1.09-2.68-7.54-6.41-14.81-13.14-22.13-19.79-3.05-2.52-3.48-6.64-4.72-10.14-6.67-20.67-20.86-38.01-36.87-52.29-1.04-.83-1.4-2.13-1.87-3.3z" fill="#7A9231"/><path d="M548.89 194.51c13.62-3.3 22.18-15.21 31.49-24.68.46.67 1.39 2.01 1.85 2.67-4.5 5.11-7.83 11.2-12.82 15.89-2.9 2.76-6.59 4.42-10.23 5.93-5.56 2.27-10.81 5.29-15.54 8.99-.67-.45-2.02-1.35-2.69-1.79 1.65-3.23 4.2-6.28 7.94-7.01z" fill="#1E1C0F"/><path d="M770.14 190.08c14.25 16.31 21.32 38.38 19.75 59.94-.78 22.83-5.59 45.69-15.44 66.38-5.93 12.65-13.8 24.33-22.9 34.91-4.54-3.73-7.72-8.77-12.16-12.58 3.52-3.83 5.79-8.56 8.22-13.1 8.79-17.11 14.41-35.63 18.83-54.29 5.45-21.68 5.9-44.29 4.2-66.48-.33-4.92-.97-9.85-.5-14.78z" fill="#C5A408"/><path d="M533.98 209.08c2.51-2.34 4.72-4.98 6.97-7.56.67.44 2.02 1.34 2.69 1.79-1.59 1.94-2.74 4.19-3.45 6.59 16.56 7.77 27.44 22.99 39.75 35.85 11.8-1.49 23.7 1.12 34.41 6.05 2.82-6.02 6.11-11.91 10.68-16.8 6.06-6.71 14.35-11.28 23.16-13.22 13.51-2.29 27.37 1.21 39.33 7.54 9.65 5.23 18.58 12.41 24.19 21.98 6.66 11.45 9.1 25.88 4.23 38.45-1.95 5.74-6.08 10.45-7.87 16.23 2.94 4.38 6.8 8.09 10.32 12.01-1.26.52-2.5 1.04-3.73 1.56-3.52-3.2-6.89-6.62-10.75-9.4-7.46 4.63-15.05 9.55-23.86 11.16-6.96 1.65-14.23.97-21.02-1.05.49-1.29.98-2.57 1.48-3.85-.86-.43-1.72-.84-2.58-1.24 8.46 2.5 17.71 3.67 26.23.75 9.18-3.13 16.43-9.97 22.81-17.03 2.99-3.22 3.92-7.66 5.12-11.75 2.44-9.41 2.56-19.82-1.58-28.79-1.74-4.04-4.45-7.53-6.98-11.08-1.46-2.61-3.86-4.4-6.59-5.5.72 2.69 2.22 5.06 3.51 7.5.53 2.38.89 4.79 1.43 7.17-.84 1.77-1.76 3.5-2.79 5.16-3.51-14.11-12.04-28.05-25.87-33.92-19.1-8.23-43.24 1.82-51.89 20.49-7.2 14.21-4.35 32.05 5.2 44.46-.9.9-1.8 1.81-2.69 2.71-2.71-3.4-5.56-6.78-7.21-10.86-3.7-8.71-4.33-18.48-3.36-27.81-10.17-5.12-22.05-8.91-33.38-5.64-1.47 1.18-1.72 3.33-2.56 4.95-4.14 10.49-12.85 18.16-21.69 24.71-9.4 8.83-18.36 18.12-27.62 27.09-9.1 8.2-17.39 17.71-22.37 29-3.85 8.73-4.1 19.29.82 27.65 5.69 9.86 16.34 15.39 26.54 19.51 13.9 5.5 29.45 5.24 43.62.89 9.95-.38 16.76-8.34 24.95-12.83-.8 3.02-1.76 6.21-4.2 8.32-4.03 3.46-9.11 5.36-13.95 7.37-15.84 6.25-33.82 6.65-49.92 1.07-11.63-4.08-23.57-10.1-30.26-20.94-6.3-9.76-6.34-22.6-1.67-33.03 5.63-12.59 15.86-22.22 24.36-32.84-3.65-4.92-9.59-8.32-15.84-7.71-1.41.87-2.39 2.26-3.29 3.61-6.86 11.49-7.89 25.6-15.66 36.63-.48-.69-1.46-2.08-1.95-2.77 3.15-8.15 6.34-16.28 9.1-24.57 1.84-5.54 5.11-10.44 7.45-15.73-3.79-4.43-9.79-6.84-12.37-12.28.44-.72 1.33-2.17 1.78-2.89 8.05 8.95 19.36 16.2 31.82 15.58 10.64-.08 19.37-7.17 26.86-13.98 6.82-6.01 11.32-14.72 11.43-23.89-.06-8.51-2.29-17.14-6.87-24.36-4.68-7.5-12.57-12.59-21.08-14.66-8.16-1.97-16.8-2.03-25-.27-.39-.7-1.17-2.09-1.56-2.79 7.22-3.47 15.41-3.72 23.22-2.79z" fill="#070704"/><path d="M500.9 217.82c3.05-2.35 6.49-4.1 9.86-5.95.39.7 1.17 2.09 1.56 2.79-9.85 6.4-19.65 14.57-23.3 26.16-3.76 12.01.47 24.75 6.14 35.42-.45.72-1.34 2.17-1.78 2.89-5.93-7.76-10.06-17.22-9.95-27.11-.32-13.38 6.75-26.38 17.47-34.2z" fill="#181919"/><path d="M512.32 214.66c8.2-1.76 16.84-1.7 25 .27 8.51 2.07 16.4 7.16 21.08 14.66 4.58 7.22 6.81 15.85 6.87 24.36-.11 9.17-4.61 17.88-11.43 23.89-7.49 6.81-16.22 13.9-26.86 13.98-12.46.62-23.77-6.63-31.82-15.58-5.67-10.67-9.9-23.41-6.14-35.42 3.65-11.59 13.45-19.76 23.3-26.16z" fill="#DDF6F6"/><path d="M242.3 224.8c1.39-.72 2.65.37 3.87.92.94 1.93 3.21 2.34 4.99 3.15 2.45 2.72 4.1 6.16 3.15 9.9-6.16-2.46-7.61-9.63-12.01-13.97z" fill="#D8D8D8"/><path d="M621.33 248.17c8.65-18.67 32.79-28.72 51.89-20.49 13.83 5.87 22.36 19.81 25.87 33.92.19 2.84.17 5.7.01 8.55-2.97 11.35-8.42 22.7-18.11 29.77-8.5 6.38-19.87 8-30.1 5.7-9.06-2.05-18.42-5.44-24.36-12.99-9.55-12.41-12.4-30.25-5.2-44.46z" fill="#DDF6F6"/><path d="M230.04 227.05c2.47-.58 4.96-.4 7.26.71.47 2.27.58 4.59.35 6.91-3.75-.99-7.2-3.5-7.61-7.62z" fill="#CBCBCB"/><path d="M242.25 233.04c3.62 4.24 8.31 8.32 9.45 14-1.98 2.8-3.82 5.7-5.9 8.43-4.98 5.15-10.11 10.16-15.27 15.13-2.03-1.64-4.24-3.11-5.9-5.14-1.71-2.29-2.39-5.13-3.32-7.78 7.56-7.65 16.42-14.58 20.94-24.64z" fill="#F9F9F9"/><path d="M254.52 249.35c1.62-3.74 3.62-7.29 5.47-10.91 2.24 3.4 4.54 6.76 6.72 10.21 7.82 13.87 15.05 28.08 22.97 41.9 3.17 7.71 7.64 14.74 11.99 21.81 2.38 6.23 6.9 11.27 9.48 17.41 2.6 5.77 6.94 10.49 9.92 16.05 4.95 8.69 9.92 17.38 15.09 25.95 2.36 4.05 4.04 8.5 6.91 12.26 6.24 8.37 10.41 18.03 16.17 26.7 8.67 12.21 15.72 25.47 23.8 38.07 3.64 6.28 7.17 12.69 11.91 18.24 4.31 4.86 6.96 10.87 10.94 15.98 2.58 3.57 5.73 6.67 8.6 10.01 7.26 9.57 15.83 18.26 26.13 24.57 2.82 2.18 5.58 4.53 8.88 5.97 7.04 2.98 13.38 7.32 20.08 10.97 8.5 4.64 16.25 10.48 23.98 16.28 1.51 5.36-1.75 10.08-4.86 14.09-6.77 5.4-12.9 11.55-18.25 18.35-13.97 13.69-26.52 28.93-36.32 45.9-4.87 7.91-6.39 18.01-3.05 26.8 3.43 9.77 11.77 16.64 16.06 25.95.41 1.04 1.04 2.41.15 3.42-8.26 10.96-20.16 18.4-28.94 28.9-8.22 9.05-15.79 20.01-16.14 32.68-3.61 52.93-3.62 106.19 1.58 159.02.5 3.66.39 7.35.43 11.05-.02 4.08 1.51 7.94 1.83 11.99.65 4.53-.14 9.23 1.33 13.64 1.31 4.06.71 8.37 1.29 12.55 1.89 4.14 1.53 8.74 2.32 13.13 1.61 5.13 1.28 10.59 2.63 15.79 1.74 7.46 3.41 14.95 5.5 22.34.7 5.18 1.32 10.55-.62 15.57-50.5-.01-101.01.01-151.51.03-5.68-.09-11.38.29-17.05-.24.33-1.82.46-3.75 1.59-5.27 4.47-6.75 8.81-13.64 11.97-21.11 1.23-2.96 2.83-5.74 4.57-8.42 4.18-6.55 7.31-13.7 10.38-20.81 4.87-9.98 9.05-20.28 13.67-30.37 20.76-45.45 35.29-93.39 50.25-140.96 1.42-1.42 2.93-2.76 4.07-4.41 20.95-32.3 39.24-66.34 54.32-101.77 20.04-46.02 36.27-94.39 40.71-144.64.39-2.84-1.37-5.15-3.4-6.86-3.73 16.05-2.49 33.04-8.13 48.69-21.75-26.04-42.13-53.22-61.99-80.73-23.27-32.54-45.35-65.95-65.84-100.31-25.29-42.07-47.92-85.69-68.39-130.28 5.05-5.29 10.49-10.26 14.81-16.19 2.53-2.62 4.84-5.49 5.99-8.99z" fill="#FEFEFE"/><path d="M568.13 239.86c3.64.12 4.19 4.2 5.63 6.77-1.01.58-2.27 2.72-3.45 1.33-2.34-2.05-2.15-5.28-2.18-8.1z" fill="#94A2A2"/><path d="M696.94 241.77c2.73 1.1 5.13 2.89 6.59 5.5l-3.08 2c-1.29-2.44-2.79-4.81-3.51-7.5z" fill="#B1B1B1"/><path d="M500.13 253.65c15.65-3.76 31.27-7.65 46.95-11.31.18 1.02.53 3.07.71 4.09-15.73 3.87-31.37 8.18-47.22 11.5-.16-1.43-.31-2.85-.44-4.28z" fill="#161919"/><path d="M269.43 246.97c4.18 5.04 6.8 11.08 9.63 16.92 7.4 14.16 15.45 27.96 23 42.04 10.1 18.71 21.18 36.87 31.75 55.32 11.74 19.84 23.97 39.4 35.87 59.13 8.74 14.16 17.17 28.51 26.6 42.23 6.2 9.73 13.52 18.66 20.48 27.83-.76.86-1.52 1.72-2.27 2.59-2.87-3.34-6.02-6.44-8.6-10.01-3.98-5.11-6.63-11.12-10.94-15.98-4.74-5.55-8.27-11.96-11.91-18.24-8.08-12.6-15.13-25.86-23.8-38.07-5.76-8.67-9.93-18.33-16.17-26.7-2.87-3.76-4.55-8.21-6.91-12.26-5.17-8.57-10.14-17.26-15.09-25.95-2.98-5.56-7.32-10.28-9.92-16.05-2.58-6.14-7.1-11.18-9.48-17.41-4.35-7.07-8.82-14.1-11.99-21.81-7.92-13.82-15.15-28.03-22.97-41.9l2.72-1.68z" fill="#222"/><path d="M245.8 255.47c2.08-2.73 3.92-5.63 5.9-8.43.7.58 2.11 1.73 2.82 2.31-1.15 3.5-3.46 6.37-5.99 8.99-.91-.96-1.82-1.92-2.73-2.87z" fill="#242525"/><path d="M700.45 249.27l3.08-2c2.53 3.55 5.24 7.04 6.98 11.08 4.14 8.97 4.02 19.38 1.58 28.79-1.2 4.09-2.13 8.53-5.12 11.75-6.38 7.06-13.63 13.9-22.81 17.03-8.52 2.92-17.77 1.75-26.23-.75-1.31-.43-2.62-.85-3.93-1.26.77-3.7 5.57-2.22 8.37-3.11 12.41-1.21 24.58-7.26 31.86-17.58 3.95-5.26 5.92-11.6 7.72-17.83 2.21-6.1 2.19-12.87-.07-18.95-.54-2.38-.9-4.79-1.43-7.17z" fill="#DAF3F3"/><path d="M579.89 251.03c11.33-3.27 23.21.52 33.38 5.64-.97 9.33-.34 19.1 3.36 27.81 1.65 4.08 4.5 7.46 7.21 10.86 1.37 1.83 2.86 3.61 4.78 4.91 3.35 2.33 6.14 5.34 9.31 7.9 6.28 5.18 13.29 9.62 21.1 12.11 6.79 2.02 14.06 2.7 21.02 1.05 8.81-1.61 16.4-6.53 23.86-11.16 3.86 2.78 7.23 6.2 10.75 9.4 5.98 6.69 11.91 13.47 18.92 19.14 1.65 1.96 3.04 4.12 4.66 6.12-6.21 10.87-12.68 21.59-18.99 32.4-1.5 2.17-2.19 4.75-.95 7.22.48-1.24.97-2.47 1.45-3.71-.17.9-.5 2.69-.66 3.59 1.62.58 3.24 1.16 4.9 1.67.85 3.47 2.12 7.2.71 10.71-1.45 4.06-5.28 6.53-8.96 8.37l-1.67.46c-11.8 2.19-22.32 9-29.91 18.2-.69.77-1.38 1.54-2.06 2.32-15.9 16.36-24.5 37.86-35.16 57.64-13.83-9.31-28.6-18.36-38.21-32.37-8.61-12.28-19.58-23.36-33.31-29.79-8.53-4.31-17.94-6.47-27.38-7.6-24.35-2.97-48.91-5.93-73.47-4.19-6.29-.46-12.33-2.92-18.69-2.36.43 4.08 4.56 4.08 7.5 5.33 2.52 2.62 2.83 6.45 3.09 9.9-11.06-1.2-19.96-8.4-28.45-14.95-5.33-4.58-10.22-10.47-11.2-17.65-.83-5.45.97-10.9 3.47-15.68 1.14-2.1 2.34-4.35 4.51-5.56 8.66-5.3 18.58-7.79 28.18-10.81 11.97-3.87 22.04-12.55 28.17-23.47 7.77-11.03 8.8-25.14 15.66-36.63.9-1.35 1.88-2.74 3.29-3.61 6.25-.61 12.19 2.79 15.84 7.71-8.5 10.62-18.73 20.25-24.36 32.84-4.67 10.43-4.63 23.27 1.67 33.03 6.69 10.84 18.63 16.86 30.26 20.94 16.1 5.58 34.08 5.18 49.92-1.07 4.84-2.01 9.92-3.91 13.95-7.37 2.44-2.11 3.4-5.3 4.2-8.32-8.19 4.49-15 12.45-24.95 12.83-6.53-4.75-15-4.77-22.03-8.45-10.94-4.8-21.31-12.53-26.16-23.78-4.08-9.3-4.64-19.81-2.74-29.71.87-5.02 1.93-10.02 2.32-15.11 9.26-8.97 18.22-18.26 27.62-27.09 8.84-6.55 17.55-14.22 21.69-24.71.84-1.62 1.09-3.77 2.56-4.95z" fill="#F6D529"/><path d="M634.53 265.63c14.95-6.32 30.28-12.17 46.33-14.96-7.18 5.29-15.74 8.23-24.1 11.08-7.21 2.11-14.61 4.67-22.23 3.88z" fill="#17191A"/><path d="M503.15 264.65c14.43-4.15 28.88-8.25 43.31-12.41.49 1.4.98 2.81 1.47 4.22-14.63 4.2-29.24 8.55-43.98 12.3l-.8-4.11z" fill="#191B1B"/><path d="M569.48 254.77c1.02-.67 2.12-1.24 3.3-1.61-.11 1.52-.32 3.02-.61 4.51-.91-.96-1.81-1.93-2.69-2.9z" fill="#DAF3F3"/><path d="M569.28 260.93c-2.2-1.41-.45-4.3.2-6.16.88.97 1.78 1.94 2.69 2.9l.41.45c-.99 1.04-1.74 2.55-3.3 2.81z" fill="#5D6666"/><path d="M701.88 256.44c2.26 6.08 2.28 12.85.07 18.95-.63-1.92-1.62-3.67-2.85-5.24.16-2.85.18-5.71-.01-8.55 1.03-1.66 1.95-3.39 2.79-5.16z" fill="#181D1D"/><path d="M151.79 302.6c25.78-10.45 47.8-27.91 69.52-44.92.93 2.65 1.61 5.49 3.32 7.78 1.66 2.03 3.87 3.5 5.9 5.14-18.63 16.53-39.14 31-60.95 43.04-11.18 5.84-22.85 11.61-35.58 12.88-3.31-5.33-6.89-10.49-10.13-15.87 9.54-1.78 18.94-4.34 27.92-8.05z" fill="#C5C5C5"/><path d="M82.45 263.75c2.81 3.01 5.65 6.03 8.82 8.68-.81.43-2.41 1.29-3.22 1.71-3.48-1.97-6.18-4.99-8.25-8.38l2.65-2.01z" fill="#252210"/><path d="M636.54 279.71c14.79-3.97 29.55-8.15 44.47-11.6.19.84.55 2.51.73 3.35-14.3 5.12-29.02 9.42-44.11 11.43-.37-1.07-.73-2.13-1.09-3.18z" fill="#1A1D1D"/><path d="M699.1 270.15c1.23 1.57 2.22 3.32 2.85 5.24-1.8 6.23-3.77 12.57-7.72 17.83-7.28 10.32-19.45 16.37-31.86 17.58-4.08.1-8.14-.3-12.18-.66.08.6.24 1.79.31 2.38 1.16.47 2.32.96 3.5 1.39 1.31.41 2.62.83 3.93 1.26.86.4 1.72.81 2.58 1.24-.5 1.28-.99 2.56-1.48 3.85-7.81-2.49-14.82-6.93-21.1-12.11-3.17-2.56-5.96-5.57-9.31-7.9-1.92-1.3-3.41-3.08-4.78-4.91.89-.9 1.79-1.81 2.69-2.71 5.94 7.55 15.3 10.94 24.36 12.99 10.23 2.3 21.6.68 30.1-5.7 9.69-7.07 15.14-18.42 18.11-29.77z" fill="#0C0D08"/><path d="M185.57 309.57c16.56-10.96 32.41-22.95 48.15-35.04 20.47 44.59 43.1 88.21 68.39 130.28 20.49 34.36 42.57 67.77 65.84 100.31 19.86 27.51 40.24 54.69 61.99 80.73 5.64-15.65 4.4-32.64 8.13-48.69 2.03 1.71 3.79 4.02 3.4 6.86-4.44 50.25-20.67 98.62-40.71 144.64-15.08 35.43-33.37 69.47-54.32 101.77-1.14 1.65-2.65 2.99-4.07 4.41 5.21-23.05 12.49-45.58 17.51-68.68 1.82-8.96 3.81-17.89 6.1-26.72 2.04-5.57 1.95-11.6 3.55-17.28 1.42-5.13 2.59-10.33 4.01-15.46 6.51 2.81 9.78 11.16 17.7 10.92-16.47-18.49-33.91-36.11-50.09-54.86-17.96-20.36-35.8-40.83-53.33-61.56-3.59-4.09-6.34-8.86-10.17-12.74-6.7-6.69-12.29-14.35-18.44-21.53-20.99-25.49-41.58-51.31-61.74-77.46-2.41-4.1-5.43-7.74-8.6-11.26-10.74-14.3-21.39-28.68-32.14-42.98-2.74-3.63-4.73-7.8-7.82-11.18-3.87-4.21-6.96-9.04-10.37-13.62-8.48-11.9-16.79-23.93-25.26-35.85.07-.54.2-1.62.26-2.16 6.53-.69 13.2 1.06 19.62-.69 3.86-1.34 7.91-1.98 11.87-2.93 14.65-3.63 28.01-11.01 40.54-19.23z" fill="#C5C5C5"/><path d="M120.53 301.64c-2.03-4.16-.22-8.91 2.29-12.41 5.45 3.1 7.78 9.17 8.86 15.03-3.88 1.63-8.51.79-11.15-2.62z" fill="#B1B1B1"/><path d="M527.19 297.07c.83-1.77 2.59-2.39 4.44-2.43-.09.57-.26 1.72-.35 2.29-.12 2.49-2.94.54-4.09.14z" fill="#424745"/><path d="M104.59 309.9c2.33-4.95 5.57-9.5 9.77-13.03.79 3.57 1.42 7.23 3 10.57 2.94 6.34 7.54 11.84 9.74 18.55.19.54.57 1.64.76 2.18-6.87.27-14.31.28-20.27-3.65-4.52-3.48-2.97-9.72-3-14.62z" fill="#C2C2C2"/><path d="M101.6 308.06c.1.07.32.2.42.26.64.4 1.93 1.19 2.57 1.58.03 4.9-1.52 11.14 3 14.62 5.96 3.93 13.4 3.92 20.27 3.65-.19-.54-.57-1.64-.76-2.18.66 3.12 3.07 4.98 6.06 5.74-6.42 1.75-13.09 0-19.62.69-.06.54-.19 1.62-.26 2.16 8.47 11.92 16.78 23.95 25.26 35.85 3.41 4.58 6.5 9.41 10.37 13.62 3.09 3.38 5.08 7.55 7.82 11.18 10.75 14.3 21.4 28.68 32.14 42.98 3.17 3.52 6.19 7.16 8.6 11.26 20.16 26.15 40.75 51.97 61.74 77.46 6.15 7.18 11.74 14.84 18.44 21.53 3.83 3.88 6.58 8.65 10.17 12.74 17.53 20.73 35.37 41.2 53.33 61.56-.64.51-1.91 1.53-2.55 2.04-4.11-4.45-8.72-8.44-12.38-13.3-6.7-9.08-15.19-16.62-22.19-25.46-14.13-17.79-29.23-34.79-43.57-52.41-7.6-8.76-14.34-18.24-22.36-26.63-5.58-6.17-9.69-13.51-15.63-19.37-10.56-14.95-22.32-29.03-33.36-43.65-11.99-14.91-23.85-29.96-34.5-45.87-2.33-3.57-5.69-6.34-7.87-10.02-8.09-13.6-19.2-25.07-27.49-38.54-3.98-6.83-9.35-12.77-13.1-19.71-1.1-1.34-2.21-2.66-3.32-3.98-2.66-5.5-3.9-12.04-1.23-17.8z" fill="#181919"/><path d="M505.65 336.78c4.98-11.29 13.27-20.8 22.37-29-.39 5.09-1.45 10.09-2.32 15.11-1.9 9.9-1.34 20.41 2.74 29.71 4.85 11.25 15.22 18.98 26.16 23.78 7.03 3.68 15.5 3.7 22.03 8.45-14.17 4.35-29.72 4.61-43.62-.89-10.2-4.12-20.85-9.65-26.54-19.51-4.92-8.36-4.67-18.92-.82-27.65z" fill="#C5A408"/><path d="M650.19 310.14c4.04.36 8.1.76 12.18.66-2.8.89-7.6-.59-8.37 3.11-1.18-.43-2.34-.92-3.5-1.39-.07-.59-.23-1.78-.31-2.38z" fill="#5D6967"/><path d="M718.39 317.99c6.63 5.5 12.45 11.86 18.04 18.39-.71.57-2.14 1.73-2.85 2.31-7.01-5.67-12.94-12.45-18.92-19.14 1.23-.52 2.47-1.04 3.73-1.56z" fill="#1D1706"/><path d="M462.95 353.49c10.66-4.47 19.8-12.22 26.25-21.78.49.69 1.47 2.08 1.95 2.77-6.13 10.92-16.2 19.6-28.17 23.47-9.6 3.02-19.52 5.51-28.18 10.81-2.17 1.21-3.37 3.46-4.51 5.56-2.5 4.78-4.3 10.23-3.47 15.68.98 7.18 5.87 13.07 11.2 17.65-1.32.65-2.63 1.3-3.95 1.95l-.2.1c-5.35-5.82-10.92-12.37-11.44-20.63-1.41-12.26 7.46-23.64 18.28-28.38 7.18-3.11 15.12-3.92 22.24-7.2z" fill="#1B190E"/><path d="M738.24 344.81c3.29 3.44 6.97 6.48 10.32 9.87-1.24 2.05-2.42 4.13-3.73 6.14-2.66 3-5.76 5.6-8.21 8.79-3.07 3.9-5.96 8.38-10.66 10.48-2.03.52-4.14.48-6.21.63-.48 1.24-.97 2.47-1.45 3.71-1.24-2.47-.55-5.05.95-7.22 6.31-10.81 12.78-21.53 18.99-32.4z" fill="#C3A308"/><path d="M756.2 358.91c5.77 4.21 8.72 10.84 12.45 16.69 3.08 5.1 4.69 11.41 2.96 17.25-.8 2.63-1.57 6.95-5.4 5.38.75-3.44 2.4-6.68 2.61-10.22-.29-3.07-.93-6.13-1.82-9.09-2.87-6.41-7.71-11.6-11.68-17.31.22-.67.66-2.02.88-2.7z" fill="#181818"/><path d="M736.62 369.61c2.45-3.19 5.55-5.79 8.21-8.79.26.81.77 2.43 1.02 3.25-.92 2.45-2.88 4.39-4.43 6.47-3.07 4.05-8.01 6.79-9.26 12.03 5.78 3.92 11.34 8.71 14.43 15.1 2.22 4.51 2.67 9.87 1.07 14.65-.34-1.29-.73-2.56-1.09-3.83-.63-.17-1.89-.49-2.52-.66.84-4.7-.03-9.88-3.33-13.48-4.23-4.93-10.71-6.73-16.73-8.37-1.66-.51-3.28-1.09-4.9-1.67.16-.9.49-2.69.66-3.59 2.07-.15 4.18-.11 6.21-.63 4.7-2.1 7.59-6.58 10.66-10.48z" fill="#17150A"/><path d="M723.99 385.98c6.02 1.64 12.5 3.44 16.73 8.37 3.3 3.6 4.17 8.78 3.33 13.48-1.64 7.44-6 13.82-10.22 20.01-2 3.12-5.58 4.51-8.75 6.11-5.82 2.84-12.53 4.8-18.98 3.04-8.42-2.26-15.18-8.06-21.94-13.27 7.59-9.2 18.11-16.01 29.91-18.2 1.66 1.71 3.47 3.58 5.98 3.82 4.8.58 9.74.69 14.29 2.52-1.59-2.3-2.91-5.18-5.73-6.18-4.13-1.41-8.61-1.1-12.87-.62 3.68-1.84 7.51-4.31 8.96-8.37 1.41-3.51.14-7.24-.71-10.71z" fill="#C5A408"/><path d="M714.07 405.52l1.67-.46c4.26-.48 8.74-.79 12.87.62 2.82 1 4.14 3.88 5.73 6.18-4.55-1.83-9.49-1.94-14.29-2.52-2.51-.24-4.32-2.11-5.98-3.82z" fill="#1B1700"/><path d="M434.07 409.6c1.32-.65 2.63-1.3 3.95-1.95 8.49 6.55 17.39 13.75 28.45 14.95-.26-3.45-.57-7.28-3.09-9.9-2.94-1.25-7.07-1.25-7.5-5.33 6.36-.56 12.4 1.9 18.69 2.36 13.5 3.42 27.31 5.64 40.64 9.79 18.61 5.53 36.74 12.93 53.45 22.88 7.49 4.33 14.46 9.48 21.55 14.42 2.11 1.3 2.71 3.81 3.53 5.98-1.49-.17-2.88-.61-4.15-1.32-11.32-7.43-22.17-15.9-34.77-21.1-5.89 8.27-12.9 17.84-23.73 19.25-11.94.97-21.2-8.27-28.93-16.11-2.75.64-5.5 1.27-8.23 1.91.97 11.17 7.14 20.93 13.37 29.92-.47.67-1.4 2.01-1.87 2.68-9.01-8.91-13.87-21.07-16.42-33.29-8.26-2.38-15.22-8.32-18.86-16.1-6.23-2.01-12.66-3.69-18.29-7.14-6.61-2.82-12.86-6.61-17.79-11.9z" fill="#0A0905"/><path d="M744.05 407.83c.63.17 1.89.49 2.52.66.36 1.27.75 2.54 1.09 3.83-1.21 4.93-4.19 9.23-7.25 13.19-4.52 5.09-9.01 10.77-15.57 13.29-8.36 3.31-17.53 2.21-26.27 1.56-14.49 24.99-26.33 51.39-38.58 77.52l-.2-.19c-.55-.53-1.65-1.59-2.2-2.13 6.24-16.74 13.9-32.92 22.2-48.73 4.72-9.46 9.94-18.68 14.29-28.33-4.5-3.63-8.84-7.56-11.98-12.46.68-.78 1.37-1.55 2.06-2.32 6.76 5.21 13.52 11.01 21.94 13.27 6.45 1.76 13.16-.2 18.98-3.04 3.17-1.6 6.75-2.99 8.75-6.11 4.22-6.19 8.58-12.57 10.22-20.01z" fill="#121006"/><path d="M474.57 409.73c24.56-1.74 49.12 1.22 73.47 4.19 9.44 1.13 18.85 3.29 27.38 7.6 13.73 6.43 24.7 17.51 33.31 29.79 9.61 14.01 24.38 23.06 38.21 32.37 10.66-19.78 19.26-41.28 35.16-57.64 3.14 4.9 7.48 8.83 11.98 12.46-4.35 9.65-9.57 18.87-14.29 28.33-8.3 15.81-15.96 31.99-22.2 48.73-8.68 19.23-14.69 39.52-19.75 59.96-1.03 3.04-1.04 6.78-2.9 9.36-8.79 3.61-17.8 6.72-26.73 9.98-5.15-3.88-11.63-7-18.23-5.64-3.93.47-7.13 2.99-10.78 4.25-7.85-11.45-16.24-22.77-27.03-31.65-9.78-8.23-21.27-14.46-33.58-17.93-.65-6.63-.43-13.34.62-19.92 1.25-9.66 4.75-19.51 1.84-29.23-1.8-8.08-7.73-14.15-13.75-19.39-6.23-8.99-12.4-18.75-13.37-29.92 2.73-.64 5.48-1.27 8.23-1.91 7.73 7.84 16.99 17.08 28.93 16.11 10.83-1.41 17.84-10.98 23.73-19.25 12.6 5.2 23.45 13.67 34.77 21.1 1.27.71 2.66 1.15 4.15 1.32-.82-2.17-1.42-4.68-3.53-5.98-7.09-4.94-14.06-10.09-21.55-14.42-16.71-9.95-34.84-17.35-53.45-22.88-13.33-4.15-27.14-6.37-40.64-9.79z" fill="#C5A408"/><path d="M471.13 414.05c23.18 4.06 46.25 9.6 68.03 18.65 3.48 1.54 7.11 2.83 10.32 4.92-1.77 5.01-3.63 10.43-8.08 13.72-7.14 5.14-17.46 4.93-24.58-.15-4.79-3.43-8.78-7.9-12.05-12.77-7.91 1.16-16.74 2.13-23.83-2.43-7.29-4.62-9.5-13.85-9.81-21.94z" fill="#FDFDFD"/><path d="M505.43 478.03c.47-.67 1.4-2.01 1.87-2.68 6.02 5.24 11.95 11.31 13.75 19.39 2.91 9.72-.59 19.57-1.84 29.23-1.05 6.58-1.27 13.29-.62 19.92 12.31 3.47 23.8 9.7 33.58 17.93 10.79 8.88 19.18 20.2 27.03 31.65 3.65-1.26 6.85-3.78 10.78-4.25 6.6-1.36 13.08 1.76 18.23 5.64 8.93-3.26 17.94-6.37 26.73-9.98 1.86-2.58 1.87-6.32 2.9-9.36 5.06-20.44 11.07-40.73 19.75-59.96.55.54 1.65 1.6 2.2 2.13-6.77 22.16-16.16 43.71-19.32 66.81 8.22-.69 16.47-1.28 24.74-.85.07.54.22 1.61.29 2.15-5.95-.04-12.08-.51-17.7 1.83-12.87 2.95-26.22 5.28-37.65 12.29 2.3 9.98.26 20.11-.97 30.09-1.88 7.81-5.07 15.31-9.48 22.04 6.74 12.64 15.28 25.06 27.87 32.47 5.22 2.98 11.23 5.87 17.4 4.57 7.7-1.33 13.81-8.29 14.55-16 .92-8.83-1.57-17.63-5.16-25.62-1.15-2.88-4.76-1.55-7.14-1.94-.2-1.18-.42-2.35-.66-3.51 8.2-3.03 14.69-9.12 21.2-14.73l1.72 2.6c-2.44 3.04-2.01 6.97-.9 10.45-.78-.18-2.35-.56-3.13-.74-1.43-.54-2.91-1.62-4.48-1.01-1.82 1.19-3.62 3.31-2.62 5.6 3.01 9.68 7.17 19.6 5.81 29.95-1.42 8.95-8.89 15.02-15.83 19.99 3.82 34.14 4.44 68.52 5.38 102.84 1.99 52.1 4.04 104.21 6.02 156.31-.71 6.44 1.65 13.69-2.26 19.42-7.18-92.32-6.47-185.05-13-277.41-13.65-2.54-26.25-9.91-35.07-20.63-5.57-6.58-10.2-13.87-14.41-21.36-7.86 1.28-15.41-1.46-23-2.94-1.92-.67-3.04 1.35-4.27 2.37-9.03 9.42-21.87 14.32-34.69 15.55-8.93.86-17.94.65-26.89.22-1.91-.84-5.7-2.58-6.37.37-8.83 27.36-14.68 55.57-21.23 83.54-1.13-1.61-2.23-3.21-3.33-4.81 1.63-3.65 2.07-7.65 2.74-11.55 4.46-23.49 11.24-46.44 17.59-69.46-6.83-4.86-14.39-10.23-16.72-18.75-2.23-9.26 1.95-18.39 6.5-26.24 3.95-6.79 8.67-13.1 13.39-19.36-3.58-10.62-7.66-21.34-7.71-32.71-.7-1.58-1.53-3.1-2.3-4.62 3.11-4.01 6.37-8.73 4.86-14.09.69-.79 1.4-1.57 2.11-2.35 6.63 1.32 11.12-5.9 17.72-4.8 1.46-13.29 2.49-26.64 5.03-39.78 1.29-10.53-6.92-18.4-12.99-25.86z" fill="#030405"/><path d="M414.49 493.03c.75-.87 1.51-1.73 2.27-2.59 8.29 9.18 17.14 17.89 27.07 25.29-.8.47-2.41 1.4-3.21 1.87-10.3-6.31-18.87-15-26.13-24.57z" fill="#161616"/><path d="M443.83 515.73l.17-.1c6.08 3.92 12.24 7.79 18.96 10.55 11.63 6.27 22.26 14.25 32.71 22.29-.71.78-1.42 1.56-2.11 2.35-7.73-5.8-15.48-11.64-23.98-16.28-6.7-3.65-13.04-7.99-20.08-10.97-3.3-1.44-6.06-3.79-8.88-5.97.8-.47 2.41-1.4 3.21-1.87z" fill="#202020"/><path d="M505.71 549.72c8.58-3.38 17.97-.21 25.78 3.75 13.89 7.33 26.2 17.75 35.6 30.35 4.94 6.88 9.31 14.55 10.48 23.06.43 6.84.69 13.91-1.61 20.48-7.09-.48-13.98-2.3-20.64-4.67-3.77-1.17-7.43-2.91-11.38-3.3-3.57 1.3-6.45 3.92-9.75 5.75-7.64 4.37-16.14 8.93-25.25 7.81-7.68-1.07-13.36-6.84-18.34-12.3 1.95-4.4 5.19-8.08 8.6-11.39 2.23-.06 4.34.88 6.5 1.33.24-3.93-1.76-7.44-2.99-11.05-4.1-10.35-7.74-21.25-7.19-32.53.51-6.82 3.33-14.56 10.19-17.29z" fill="#6393DD"/><path d="M470.45 583.26c5.35-6.8 11.48-12.95 18.25-18.35.77 1.52 1.6 3.04 2.3 4.62-7.24 4.32-11.82 11.66-18.44 16.76-.52-.76-1.58-2.27-2.11-3.03z" fill="#1A1B1B"/><path d="M472.56 586.29c6.62-5.1 11.2-12.44 18.44-16.76.05 11.37 4.13 22.09 7.71 32.71-4.72 6.26-9.44 12.57-13.39 19.36-4.55 7.85-8.73 16.98-6.5 26.24 2.33 8.52 9.89 13.89 16.72 18.75-6.35 23.02-13.13 45.97-17.59 69.46-.67 3.9-1.11 7.9-2.74 11.55-.55 3.55-.97 7.14-2.19 10.55-.3 3.74-1.07 7.37-2.25 10.94-.47 7.11-2.72 13.92-3.94 20.91-3.45 15.91-4.51 32.24-8.36 48.06-.42 9.81-3.82 19.17-4.6 28.91-.67 3.69-2.15 7.22-2.13 11.04.03 3.45-1.85 6.53-1.94 9.96-.01 4.14-2.08 7.9-2.1 12.04-.04 3.88-2.02 7.4-1.99 11.3 0 3.38-1.94 6.35-2.07 9.71.03 4.51-2.39 8.53-2.47 13.04-5.44 23.09-10.3 46.35-17.29 69.04-5.57-11.65-5.85-24.89-9.27-37.18-.4-5.43-1.24-10.77-2.38-16.08.04-3.17.07-6.39-.88-9.44-2-6.24-1.17-12.88-2.01-19.28-1.86-7.9-1.59-16.08-2.14-24.12-3.39-48.25-4.1-96.73-.92-145.02.06-7.62 2.06-15.18 5.83-21.8 7.36-12.85 19.05-22.33 29.6-32.44 4.41-4.22 10.64-8.51 10.62-15.24-4.24-11.23-15.02-18.97-17.72-30.93-1.96-7.46.35-15.32 4.2-21.76 9.25-15.95 21.88-29.54 33.75-43.52z" fill="#FEFEFE"/><path d="M434.13 629.16c9.8-16.97 22.35-32.21 36.32-45.9.53.76 1.59 2.27 2.11 3.03-11.87 13.98-24.5 27.57-33.75 43.52-3.85 6.44-6.16 14.3-4.2 21.76 2.7 11.96 13.48 19.7 17.72 30.93.02 6.73-6.21 11.02-10.62 15.24-10.55 10.11-22.24 19.59-29.6 32.44-3.77 6.62-5.77 14.18-5.83 21.8-3.18 48.29-2.47 96.77.92 145.02.55 8.04.28 16.22 2.14 24.12.84 6.4.01 13.04 2.01 19.28.95 3.05.92 6.27.88 9.44-.87-.17-1.75-.32-2.61-.46-.32 1.92-.64 3.84-.95 5.78-.58-4.18.02-8.49-1.29-12.55-1.47-4.41-.68-9.11-1.33-13.64-.32-4.05-1.85-7.91-1.83-11.99-.04-3.7.07-7.39-.43-11.05-5.2-52.83-5.19-106.09-1.58-159.02.35-12.67 7.92-23.63 16.14-32.68 8.78-10.5 20.68-17.94 28.94-28.9.89-1.01.26-2.38-.15-3.42-4.29-9.31-12.63-16.18-16.06-25.95-3.34-8.79-1.82-18.89 3.05-26.8z" fill="#0A0A0A"/><path d="M665.21 583.65c5.8 1.08 12.29 3.23 15.34 8.71 3.32 6.06 1.65 13.27.05 19.59-1.77 6.95-5.62 13.31-11.12 17.94l-1.72-2.6c5.71-8.34 10.92-17.92 10.32-28.35-.15-4.88-3.79-9.17-8.51-10.27-7.12-1.68-14.52-1.1-21.77-1.04 5.62-2.34 11.75-1.87 17.7-1.83-.07-.54-.22-1.61-.29-2.15z" fill="#121418"/><path d="M610.15 599.92c11.43-7.01 24.78-9.34 37.65-12.29 7.25-.06 14.65-.64 21.77 1.04 4.72 1.1 8.36 5.39 8.51 10.27.6 10.43-4.61 20.01-10.32 28.35-6.51 5.61-13 11.7-21.2 14.73-9.23 2.63-19.4 1.59-28-2.6-4.02-2.01-8.09-4.88-9.38-9.41 1.23-9.98 3.27-20.11.97-30.09z" fill="#6293DD"/><path d="M580.42 600.74c2.71-3.83 6.71-7.13 11.62-7.22 4.42-.1 9.67.93 12.24 4.93 2.29 4.11 2.18 9 2.26 13.57.11 6.57-.81 13.17-3.05 19.36-7.53.22-15.37.79-22.5-2.16 1.17-9.44 2.7-19.27-.57-28.48z" fill="#6292DC"/><path d="M534.19 625.14c3.3-1.83 6.18-4.45 9.75-5.75 3.95.39 7.61 2.13 11.38 3.3 6.66 2.37 13.55 4.19 20.64 4.67-1.97 8.13-5.38 16.15-11.38 22.15-9.25 9.56-22.67 13.56-35.55 15.02-11.57.54-23.79.85-34.51-4.2-6.33-2.85-11.44-9.13-11.38-16.29-.6-8.47 3.36-16.28 7.46-23.39 4.98 5.46 10.66 11.23 18.34 12.3 9.11 1.12 17.61-3.44 25.25-7.81z" fill="#296BC5"/><path d="M338.6 624.8c.64-.51 1.91-1.53 2.55-2.04 16.18 18.75 33.62 36.37 50.09 54.86-7.92.24-11.19-8.11-17.7-10.92-1.42 5.13-2.59 10.33-4.01 15.46-1.6 5.68-1.51 11.71-3.55 17.28-.84-.44-2.54-1.31-3.38-1.75.97-5.13 1.36-10.43 3.59-15.21 1.05-7.37 3.63-14.53 3.27-22.08-4.95-6.29-10.23-12.35-15.44-18.43-5.64-5.25-10.86-10.96-15.42-17.17z" fill="#131313"/><path d="M580.99 629.22c7.13 2.95 14.97 2.38 22.5 2.16-.25 5.94-3.17 11.2-6.63 15.87-7.32 2.46-15.61 1.92-22.34-1.98 2.27-5.31 4.24-10.73 6.47-16.05z" fill="#296AC3"/><path d="M609.18 630.01c1.29 4.53 5.36 7.4 9.38 9.41 8.6 4.19 18.77 5.23 28 2.6.24 1.16.46 2.33.66 3.51 2.38.39 5.99-.94 7.14 1.94 3.59 7.99 6.08 16.79 5.16 25.62-.74 7.71-6.85 14.67-14.55 16-6.17 1.3-12.18-1.59-17.4-4.57-12.59-7.41-21.13-19.83-27.87-32.47 4.41-6.73 7.6-14.23 9.48-22.04z" fill="#296AC5"/><path d="M658.35 644.19c-1-2.29.8-4.41 2.62-5.6 1.57-.61 3.05.47 4.48 1.01 5.02 11.91 9.93 23.87 15.37 35.6 5.9 11.82 11.66 24.28 11.82 37.76.54 14.05-5.3 27.73-14.22 38.38-2.08 2.57-4.6 4.84-6.21 7.77-.78 3.7 2.89 5.8 5.38 7.68 3.79 3.32 7.26 6.99 10.77 10.61 7.65 9.56 13.56 21.11 13.93 33.57.26 7.76-2.4 15.14-4.01 22.63-3.45 9.88-5.48 20.18-8.22 30.27-7.42 29.12-14.87 58.23-22.31 87.35-1.63 6.72-3.71 13.35-4.67 20.21-3.26-5.57-.75-12.36-3.35-18.15-1.98-52.1-4.03-104.21-6.02-156.31-.94-34.32-1.56-68.7-5.38-102.84 6.94-4.97 14.41-11.04 15.83-19.99 1.36-10.35-2.8-20.27-5.81-29.95z" fill="#FEFEFE"/><path d="M665.45 639.6c.78.18 2.35.56 3.13.74 5.03 9.32 13.77 15.93 20.12 24.33-.7.49-2.08 1.47-2.77 1.96-2.39-2.11-4.73-4.27-6.9-6.59 2.6 4.65 3.75 9.94 6.54 14.5 5.96 12.05 11.29 24.82 11.8 38.45.57 13.6-4.38 27.09-12.85 37.65-1.92 2.57-4.38 4.74-6.07 7.47-1.1 2.4.37 4.89 2.21 6.41-.77.57-2.3 1.71-3.07 2.27-2.49-1.88-6.16-3.98-5.38-7.68 1.61-2.93 4.13-5.2 6.21-7.77 8.92-10.65 14.76-24.33 14.22-38.38-.16-13.48-5.92-25.94-11.82-37.76-5.44-11.73-10.35-23.69-15.37-35.6z" fill="#0E0E0E"/><path d="M567.72 652.73c1.23-1.02 2.35-3.04 4.27-2.37 7.59 1.48 15.14 4.22 23 2.94 4.21 7.49 8.84 14.78 14.41 21.36 8.82 10.72 21.42 18.09 35.07 20.63 6.53 92.36 5.82 185.09 13 277.41.1 6.09-.27 12.17-.13 18.26-11.72 1.57-23.6 2.38-35.39 1.01-15.18-1.73-30.29-5.26-44.17-11.75-13.11-6.11-26.4-12.05-40.5-15.51-29.18-7.73-60.65-5.91-88.88 4.68-3.44 1.38-7.05 2.3-10.73 2.76 2.22-7.26 3.84-14.76 4.31-22.34 1.61-7.61 2.45-15.41 4.89-22.82.75-3.16.52-6.53 1.85-9.55 1.12-6.47 2.11-12.99 3.6-19.4 1.55-4.32 1.12-9.03 2.72-13.34.62-4.24.76-8.56 2.21-12.63.87-8.21 2.24-16.38 4.15-24.41 1.38-8.91 2.38-17.92 4.69-26.63.29-4.79 1.76-9.36 2.99-13.95 1.08-3.32 2.49-6.57 4.63-9.35 6.95-9.01 10.34-20.05 14.61-30.44 10.31-25.83 16.37-53.77 14.28-81.67-.15-4.55-1.37-9.09-.78-13.62.42-2.09 2.63-2.75 4.32-3.5 8.95.43 17.96.64 26.89-.22 12.82-1.23 25.66-6.13 34.69-15.55z" fill="#FEFEFE"/><path d="M679.03 660.04c2.17 2.32 4.51 4.48 6.9 6.59.91 1.17 1.7 2.44 2.56 3.67-.98 1.4-1.95 2.82-2.92 4.24-2.79-4.56-3.94-9.85-6.54-14.5z" fill="#D2D2D2"/><path d="M688.7 664.67c5.62 4.88 10.33 10.67 14.56 16.78-.46.76-1.39 2.29-1.85 3.06-4.22-4.82-8.94-9.19-12.92-14.21-.86-1.23-1.65-2.5-2.56-3.67.69-.49 2.07-1.47 2.77-1.96z" fill="#2A2A2A"/><path d="M499.77 668.87c.67-2.95 4.46-1.21 6.37-.37-1.69.75-3.9 1.41-4.32 3.5-.59 4.53.63 9.07.78 13.62 2.09 27.9-3.97 55.84-14.28 81.67-4.27 10.39-7.66 21.43-14.61 30.44-2.14 2.78-3.55 6.03-4.63 9.35 1.71-5.77 1.07-11.88 2.49-17.69 1.34-6.09 2.88-12.15 3.26-18.39 1.25-6.19 2.39-12.41 3.71-18.59 6.55-27.97 12.4-56.18 21.23-83.54z" fill="#C5C5C5"/><path d="M685.57 674.54c.97-1.42 1.94-2.84 2.92-4.24 3.98 5.02 8.7 9.39 12.92 14.21 2.33 3.24 6.37 6.09 5.82 10.55.07 27.81.85 56.96-11.12 82.8-2.09-.82-4.06-1.94-5.58-3.61-2.72-3.78-5.98-7.15-9.87-9.73-1.84-1.52-3.31-4.01-2.21-6.41 1.69-2.73 4.15-4.9 6.07-7.47 8.47-10.56 13.42-24.05 12.85-37.65-.51-13.63-5.84-26.4-11.8-38.45z" fill="#FCFCFC"/><path d="M701.41 684.51c.46-.77 1.39-2.3 1.85-3.06 5.73 8.28 13.24 15.16 18.42 23.84l-.26.45c-.45.78-1.34 2.34-1.79 3.12-2.19-2.96-4.18-6.38-7.76-7.83-.46 20.36-.07 41.03-5.26 60.89-1.87 7.62-4.93 14.87-8.33 21.93 4 5.7 6.01 12.43 7.83 19.07.73 2.97 1.24 6.05.77 9.11-.85 7.46-1.72 15.03-4.4 22.09-5.27 12.7-3.45 26.84-1.56 40.06 1.83 10.54 2.04 21.27 3.86 31.8-.29 4.17 3.41 6.61 6.06 9.17 3.43 3 5.94 6.83 8.7 10.42-.44.8-1.3 2.4-1.73 3.2-4-2.74-5.37-8.25-10.18-9.91-.43-1.12-1.3-1.79-2.31-.89.07.75.22 2.27.29 3.02-1.28 4.28-1.91 8.73-1.99 13.2-.43-6.05.05-12.28-2.05-18.09-.45-6.02-.28-12.15-2.26-17.94.44-10.78-2.33-21.31-2.78-32.02-1.02.09-2.03.19-3.03.3-.25 1.43-.49 2.86-.72 4.31-5.78 23.8-12.31 47.43-18.36 71.17-3.1 11.13-5.52 22.46-8.99 33.49-.83-1.32-1.7-2.58-2.35-3.98.96-6.86 3.04-13.49 4.67-20.21 7.44-29.12 14.89-58.23 22.31-87.35 2.74-10.09 4.77-20.39 8.22-30.27 1.61-7.49 4.27-14.87 4.01-22.63-.37-12.46-6.28-24.01-13.93-33.57.54-.79 1.63-2.36 2.17-3.15 1.52 1.67 3.49 2.79 5.58 3.61 11.97-25.84 11.19-54.99 11.12-82.8.55-4.46-3.49-7.31-5.82-10.55zm4.2 236.48l.56-.9c1.04 6.28.25 12.84 2.3 18.95.67 4.92.59 9.93 1.24 14.85 1.79 5.53 1.3 11.46 2 17.18 1.19 1.76 1.05 3.93 1.29 5.97.65 4.12-.14 8.46 1.39 12.42 1.2 3.01.76 6.29 1.14 9.45.75 7.66 2.15 15.29 2.03 23.02-1.03-.03-3.09-.08-4.13-.11 1.28-11.09-3.1-21.9-2.28-32.93-2.91-5.92-.68-12.71-2.72-18.83-1.94-5.1-.31-10.69-1.85-15.87C704.4 948 706.5 941 703.6 935l.02-.81c.08-4.47.71-8.92 1.99-13.2z" fill="#0D0E0E"/><path d="M579.24 684.23c2.67-1.99 5.51.18 7.67 1.83 2.54 2.34 4.75 6.25 2.44 9.52-2.52 6.28-13.1 5.84-14.91-.76-1.84-4.17.54-9.14 4.8-10.59z" fill="#222323"/><path d="M581.17 688.16c1.75-.35 3.27 1 4.22 2.33 1.17 2.77-2.67 7.08-5.2 4.35-2.88-1.63-1.72-5.6.98-6.68z" fill="#D7D7D7"/><path d="M362.6 697.69c.84.44 2.54 1.31 3.38 1.75-2.29 8.83-4.28 17.76-6.1 26.72-5.02 23.1-12.3 45.63-17.51 68.68-14.96 47.57-29.49 95.51-50.25 140.96-.93-.48-1.86-.94-2.77-1.43 12.91-33.19 25.65-66.48 36.51-100.41 13.19-41.18 23.46-83.22 34.38-125.04.15-3.89 2.11-7.37 2.36-11.23z" fill="#0F0F0F"/><path d="M706.61 761.92c5.19-19.86 4.8-40.53 5.26-60.89 3.58 1.45 5.57 4.87 7.76 7.83 2.76 4.96 6.64 9.17 9.45 14.11 6.33 10.67 12.99 21.14 18.92 32.04 3.17 4.97 5 10.64 8.23 15.58 7.69 11.29 13.47 23.76 21.27 34.99 5.14 7.19 9.95 14.66 15.78 21.31 2.62 3.47 4.55 7.4 7.07 10.94 5.53 8.34 12.78 15.4 17.98 23.98 2.45 4.38 6.32 7.66 9.23 11.71 6.33 7.98 11.65 16.76 18.82 24.08 16.69 19.87 32.53 40.48 49.52 60.1-2.06 17.87-13.33 32.73-24.88 45.79-2.19-.79-4.35-1.86-5.62-3.89-22.32-30.46-45.63-60.2-69.49-89.47-23.36-28.89-47.75-56.93-71.46-85.53-4.23-5.07-8.77-9.91-13.92-14.06-2.42-1.87-3.49-4.83-4.42-7.62-1.82-6.64-3.83-13.37-7.83-19.07 3.4-7.06 6.46-14.31 8.33-21.93z" fill="#FEFEFE"/><path d="M721.42 705.74c4.01 2.87 5.62 7.7 8.44 11.55 5.81 8.33 11.13 17 15.7 26.07 5.75 10.54 11.77 20.93 17.57 31.45 6.65 11.82 14.32 23.01 21.53 34.49 2.47 4.02 5.53 7.62 8.56 11.23 4.36 7.8 10.18 14.63 15.32 21.91 22.3 30.76 46.36 60.18 70.31 89.65 6.02 7.37 12.38 14.47 18.15 22.04-.27.89-.83 2.68-1.1 3.57-16.99-19.62-32.83-40.23-49.52-60.1-7.17-7.32-12.49-16.1-18.82-24.08-2.91-4.05-6.78-7.33-9.23-11.71-5.2-8.58-12.45-15.64-17.98-23.98-2.52-3.54-4.45-7.47-7.07-10.94-5.83-6.65-10.64-14.12-15.78-21.31-7.8-11.23-13.58-23.7-21.27-34.99-3.23-4.94-5.06-10.61-8.23-15.58-5.93-10.9-12.59-21.37-18.92-32.04-2.81-4.94-6.69-9.15-9.45-14.11.45-.78 1.34-2.34 1.79-3.12z" fill="#222323"/><path d="M475.21 747.6c1.1 1.6 2.2 3.2 3.33 4.81-1.32 6.18-2.46 12.4-3.71 18.59-.38 6.24-1.92 12.3-3.26 18.39-1.42 5.81-.78 11.92-2.49 17.69-1.23 4.59-2.7 9.16-2.99 13.95-2.31 8.71-3.31 17.72-4.69 26.63-1.91 8.03-3.28 16.2-4.15 24.41-1.45 4.07-1.59 8.39-2.21 12.63-1.6 4.31-1.17 9.02-2.72 13.34-1.49 6.41-2.48 12.93-3.6 19.4-.55-2.26-1.1-4.62-3.01-6.13-.03-3.9 1.95-7.42 1.99-11.3.02-4.14 2.09-7.9 2.1-12.04.09-3.43 1.97-6.51 1.94-9.96-.02-3.82 1.46-7.35 2.13-11.04.78-9.74 4.18-19.1 4.6-28.91 3.85-15.82 4.91-32.15 8.36-48.06 1.22-6.99 3.47-13.8 3.94-20.91 1.18-3.57 1.95-7.2 2.25-10.94 1.22-3.41 1.64-7 2.19-10.55z" fill="#1B1B1B"/><path d="M680.66 764.52c3.89 2.58 7.15 5.95 9.87 9.73-.54.79-1.63 2.36-2.17 3.15-3.51-3.62-6.98-7.29-10.77-10.61.77-.56 2.3-1.7 3.07-2.27z" fill="#1E2020"/><path d="M571.23 770.38c2.58-.25 5.61-.21 7.46 1.93 2.18 1.92 2.31 5.07 2.08 7.77-.24 3.54-3.73 5.73-6.87 6.49-3.42.24-6.92-1.82-8.42-4.89-2.68-4.33.85-10.74 5.75-11.3z" fill="#202020"/><path d="M569.12 779.19c.55-1.72 1.14-3.6 2.82-4.53 3.44-.81 6.42 4.42 2.95 6.4-2.03 1.93-4.39-.36-5.77-1.87z" fill="#E7E7E7"/><path d="M706.11 802.92c.93 2.79 2 5.75 4.42 7.62 5.15 4.15 9.69 8.99 13.92 14.06 23.71 28.6 48.1 56.64 71.46 85.53 23.86 29.27 47.17 59.01 69.49 89.47 1.27 2.03 3.43 3.1 5.62 3.89-5.01 6.56-12.22 11.16-16.54 18.3-17.95.12-35.91.03-53.86.05-6.39-7.48-12.64-15.07-18.55-22.92-9.04-9.33-17.03-19.6-25.51-29.42-3.77-4.61-6.92-9.73-11.24-13.87-9.49-9.26-16.19-20.91-25.78-30.06-2.76-3.59-5.27-7.42-8.7-10.42-2.65-2.56-6.35-5-6.06-9.17-1.82-10.53-2.03-21.26-3.86-31.8-1.89-13.22-3.71-27.36 1.56-40.06 2.68-7.06 3.55-14.63 4.4-22.09.47-3.06-.04-6.14-.77-9.11z" fill="#C5C5C5"/><path d="M573.42 849.65c3.32-.71 7.43-.77 9.78 2.14 2.05 2.58 4.39 6.42 2.35 9.63-1.51 3.32-4.43 6.85-8.48 6.41-3.66.29-7.31-1.68-8.98-4.96-2.26-4.83-.09-11.67 5.33-13.22z" fill="#1A1B1B"/><path d="M572.66 854.79c1.82-.5 3.64-1.4 5.59-1.14 3.3 1.4 4.66 6.61 1.35 8.75-1.96 2.23-5.34.75-6.99-1.11-.9-2.09-.23-4.37.05-6.5z" fill="#E5E5E5"/><path d="M693.5 866.44c1-.11 2.01-.21 3.03-.3.45 10.71 3.22 21.24 2.78 32.02-.35-1.03-.53-2.07-.56-3.12.18-8.23-2-16.25-2.6-24.42-.84.03-2.52.1-3.37.13.23-1.45.47-2.88.72-4.31z" fill="#7A7A7A"/><path d="M477.4 895.52c13.27-4.82 27.65-5.42 41.64-4.93 12.88.71 25.73 2.78 38.06 6.67 28.41 6.03 55.06 18.83 78.74 35.49-21.37-10.41-43.05-20.35-65.7-27.69-8.98-2.73-17.96-5.81-27.31-6.93-19.06-2.97-38.8-4.95-57.79-.5-5.72 1.32-11.4 2.86-16.93 4.83 1.72-3.67 5.78-5.41 9.29-6.94z" fill="#161616"/><path d="M445.71 911.31c1.91 1.51 2.46 3.87 3.01 6.13-1.33 3.02-1.1 6.39-1.85 9.55-2.44 7.41-3.28 15.21-4.89 22.82-1.47 5.66-2.03 11.54-3.9 17.11-2.49 13.89-7.09 27.3-10.74 40.92 30.25-1.62 60.41 1.77 90.63 2.37 19.79.26 39.71-1.09 59-5.73 7.34 5.81 14.62 11.72 22.19 17.24-2.89.14-5.79.15-8.68.08-4.96-4.23-9.23-9.9-15.42-12.26-10.57 2.32-21.18 4.75-32.04 5.19-13.68 1.4-27.37-.2-41.06-.39-19.26-.94-38.53-1.47-57.79-2.39-5.59-.28-11.92-1.2-16.71 2.42-3.13 2.14-3.58 7.39-8.01 7.6 1.12-5.03 1.07-10.17.81-15.27-.28-.07-.85-.21-1.14-.28-2.09-7.39-3.76-14.88-5.5-22.34-1.35-5.2-1.02-10.66-2.63-15.79-.79-4.39-.43-8.99-2.32-13.13.31-1.94.63-3.86.95-5.78.86.14 1.74.29 2.61.46 1.14 5.31 1.98 10.65 2.38 16.08 3.42 12.29 3.7 25.53 9.27 37.18 6.99-22.69 11.85-45.95 17.29-69.04.08-4.51 2.5-8.53 2.47-13.04.13-3.36 2.07-6.33 2.07-9.71z" fill="#070606"/><path d="M591.06 925.89c13.57-1.94 27.1 6.79 32.46 19.12-9.45-8.43-20.45-15.06-32.46-19.12z" fill="#1C1C1C"/><path d="M719.54 925.57c9.59 9.15 16.29 20.8 25.78 30.06 4.32 4.14 7.47 9.26 11.24 13.87 8.48 9.82 16.47 20.09 25.51 29.42 5.91 7.85 12.16 15.44 18.55 22.92-2.08 0-4.14 0-6.2-.05-1-3.99-4.35-6.53-6.72-9.65-4.12-6.06-9.24-11.32-13.82-17-18.75-22.07-37.25-44.35-56.07-66.37.43-.8 1.29-2.4 1.73-3.2z" fill="#1E1F1F"/><path d="M572.39 934.97c1.87-3.21 4.25-7.9 8.69-7.15 4.25 1.49 6.69 6.01 5.67 10.39-2.48 1.76-5.42 4.26-8.67 3.21-2.98-.91-4.31-3.96-5.69-6.45z" fill="#1F2020"/><path d="M578.46 932.6c.94.03 1.89.07 2.85.12.51 1.22.99 2.46 1.42 3.74-1.5.14-2.99.27-4.47.42.06-1.44.12-2.87.2-4.28z" fill="#E2E2E2"/><path d="M279.4 956.02c2.75-7.46 5.63-14.94 9.95-21.65.91.49 1.84.95 2.77 1.43-4.62 10.09-8.8 20.39-13.67 30.37-3.07 7.11-6.2 14.26-10.38 20.81-1.74 2.68-3.34 5.46-4.57 8.42-3.16 7.47-7.5 14.36-11.97 21.11-1.13 1.52-1.26 3.45-1.59 5.27-1.89.01-3.77.02-5.65.07 13.15-21.13 24.36-43.4 35.11-65.83z" fill="#222"/><path d="M438.08 966.92c1.87-5.57 2.43-11.45 3.9-17.11-.47 7.58-2.09 15.08-4.31 22.34 3.68-.46 7.29-1.38 10.73-2.76 28.23-10.59 59.7-12.41 88.88-4.68 14.1 3.46 27.39 9.4 40.5 15.51 13.88 6.49 28.99 10.02 44.17 11.75 11.79 1.37 23.67.56 35.39-1.01 1.52 10.22 2.24 20.54 2.06 30.88-20.08-.09-40.17.19-60.24-.12-7.57-5.52-14.85-11.43-22.19-17.24-19.29 4.64-39.21 5.99-59 5.73-30.22-.6-60.38-3.99-90.63-2.37 3.65-13.62 8.25-27.03 10.74-40.92z" fill="#C5C5C5"/><path d="M659.73 953.28c2.6 5.79.09 12.58 3.35 18.15.65 1.4 1.52 2.66 2.35 3.98l.2.31c-4.88 14.93-.97 30.79-2.06 46.13-1.4-.02-2.79-.02-4.17-.01.18-10.34-.54-20.66-2.06-30.88-.14-6.09.23-12.17.13-18.26 3.91-5.73 1.55-12.98 2.26-19.42z" fill="#161616"/><path d="M895.9 957.7c.27-.89.83-2.68 1.1-3.57 1.15 1.28 2.73 2.31 3.53 3.89.88 3.08-.47 6.19-1.18 9.17 1.55 1.69 3.51 3.02 4.89 4.87l-.15.71c-.39.31-1.18.93-1.57 1.24-1.85-.61-3.7-1.16-5.56-1.65-5.71 14.83-16.13 27.1-26.37 38.99-3.71 3.06-7.38 6.25-9.83 10.46-2.1.03-4.2.01-6.28-.02 4.32-7.14 11.53-11.74 16.54-18.3 11.55-13.06 22.82-27.92 24.88-45.79z" fill="#121313"/><path d="M870.59 1011.35c10.24-11.89 20.66-24.16 26.37-38.99 1.86.49 3.71 1.04 5.56 1.65-.07 6.81-3.17 13.04-6.84 18.6-3.99 6.37-7.58 13.03-12.51 18.76-2 2.17-4.2 4.14-6.06 6.43-2.48-1.83-4.65-4.02-6.52-6.45z" fill="#F7F7F7"/><path d="M902.52 974.01c.39-.31 1.18-.93 1.57-1.24l.79-.12c5.55 5.96 14.39 6.23 21.94 5.24 6.62-1.05 12.97 1.76 18.67 4.81 5.91 3.95 7.43 11.61 7.36 18.27-.15 4.01-.01 8.83 4 11.02-1.32.45-2.64.92-3.94 1.4-5.53-3.08-10.84-6.58-15.4-10.99 3.52-2.75 7.38.43 10.93 1.47.42-4.98.52-10.42-2.5-14.68-2.97-4.01-7.77-7.12-12.9-6.89-8.85.05-17.7-.01-26.55.06-6.15 10.77-11.38 22.27-20.15 31.26-.79-.57-2.38-1.69-3.17-2.25 4.93-5.73 8.52-12.39 12.51-18.76 3.67-5.56 6.77-11.79 6.84-18.6z" fill="#17150A"/><path d="M906.49 982.36c8.85-.07 17.7-.01 26.55-.06 5.13-.23 9.93 2.88 12.9 6.89 3.02 4.26 2.92 9.7 2.5 14.68-3.55-1.04-7.41-4.22-10.93-1.47 4.56 4.41 9.87 7.91 15.4 10.99 3.62 2.48 7.9 4.47 10.29 8.33-27.34.3-54.69.05-82.03.13 1.19-3.05 3.09-5.73 5.17-8.23 8.77-8.99 14-20.49 20.15-31.26z" fill="#F6D529"/><path d="M419.12 1006.42c.29.07.86.21 1.14.28.26 5.1.31 10.24-.81 15.27 4.43-.21 4.88-5.46 8.01-7.6 4.79-3.62 11.12-2.7 16.71-2.42 19.26.92 38.53 1.45 57.79 2.39 13.69.19 27.38 1.79 41.06.39 10.86-.44 21.47-2.87 32.04-5.19 6.19 2.36 10.46 8.03 15.42 12.26-57.33.21-114.66-.16-171.98.19 1.94-5.02 1.32-10.39.62-15.57z" fill="#6A4930"/><path d="M860.76 1021.81c2.45-4.21 6.12-7.4 9.83-10.46 1.87 2.43 4.04 4.62 6.52 6.45-.67 1.3-1.26 2.64-1.86 3.98-4.83.1-9.67.09-14.49.03z" fill="#BFBFBF"/><path d="M877.11 1017.8c1.86-2.29 4.06-4.26 6.06-6.43.79.56 2.38 1.68 3.17 2.25-2.08 2.5-3.98 5.18-5.17 8.23-1.98-.01-3.96-.03-5.92-.07.6-1.34 1.19-2.68 1.86-3.98z" fill="#232114"/><path d="M956.85 1011.99c3.85 2.08 7.13 5.07 11.05 7.06 1.21.72 3.05.93 3.12 2.7-2.61.1-5.22.1-7.82-.03-2.39-3.86-6.67-5.85-10.29-8.33 1.3-.48 2.62-.95 3.94-1.4z" fill="#2F2C19"/><path d="M662 1019.12v2.1h51.81c1.2-10.99-3.12-21.71-2.3-32.64-2.91-5.91-.68-12.7-2.72-18.81-1.94-5.09-.31-10.67-1.85-15.84-2.18-6.19-.08-13.18-2.98-19.17l.02-.81c.02-1.45.11-2.89.25-4.34-.14 1.45-.23 2.89-.25 4.34-.43-6.04.05-12.26-2.05-18.06-.45-6.01-.28-12.13-2.27-17.92.44-10.76-2.33-21.28-2.78-31.97-1.02.09-2.03.19-3.03.3-.25 1.43-.49 2.86-.72 4.3-5.78 23.77-12.31 47.37-18.36 71.07-3.1 11.12-5.52 22.43-8.99 33.45l-.03-.06c-3.92 14.33-.41 29.44-1.45 44.08-.77-.01-1.54-.02-2.3-.02z" fill="#FEFEFE"/></g></svg>